#!OML:ASF Y:\EmotionMaleHayes\Project 1\Capture day 1\Session 1\Male1.ASF
:FULLY-SPECIFIED
:DEGREES
344
root -30.4417 16.6883 -1.29882 190.517 49.9412 187.162
lowerback 10.8803 3.27622 4.84318
upperback 3.7715 5.08931 0.456513
thorax -1.76825 2.65329 -2.84494
lowerneck -21.6712 2.23111 4.41974
upperneck 34.3723 4.06872 -2.36123
head 16.0164 2.42173 -0.84042
rclavicle -4.2366e-014 6.55989e-015
rhumerus -15.9599 19.7351 -86.1347
rradius 42.5723
rwrist -3.39605
rhand -12.217 -31.3396
rfingers 7.12502
rthumb 13.8479 -60.8586
lclavicle -4.2366e-014 6.55989e-015
lhumerus -38.729 12.4059 73.1476
lradius 19.0089
lwrist -14.5674
lhand -18.3386 -23.8192
lfingers 7.12502
lthumb 7.94355 6.01158
rfemur 11.6963 -14.5921 14.8268
rtibia 3.51877
rfoot -24.6483 -30.9211
rtoes 14.6013
lfemur -15.177 9.38715 1.84864
ltibia 9.5797
lfoot -7.60844 17.3359
ltoes -11.9543
345
root -30.4385 16.6762 -1.39938 190.982 49.8228 187.5
lowerback 10.8058 3.35172 4.79211
upperback 3.75688 5.18096 0.51169
thorax -1.74523 2.69825 -2.76445
lowerneck -21.7846 2.13463 3.99823
upperneck 34.4013 3.91848 -1.9256
head 16.0264 2.36503 -0.608121
rclavicle 8.22472e-015 4.82053e-015
rhumerus -15.9891 19.7374 -85.9918
rradius 42.8743
rwrist -3.84546
rhand -12.6758 -31.1214
rfingers 7.12502
rthumb 13.4057 -60.67
lclavicle 8.22472e-015 4.82053e-015
lhumerus -38.6617 12.264 73.3713
lradius 19.0109
lwrist -14.1516
lhand -18.3867 -23.7189
lfingers 7.12502
lthumb 7.89715 6.1136
rfemur 11.555 -14.0879 15.0211
rtibia 3.69803
rfoot -25.3568 -31.3338
rtoes 15.4212
lfemur -15.6531 9.88793 1.84957
ltibia 10.2317
lfoot -7.97692 16.7754
ltoes -12.2857
346
root -30.4365 16.6758 -1.51343 190.617 49.257 187.228
lowerback 10.966 3.24657 4.63631
upperback 3.90254 5.04243 0.496887
thorax -1.70471 2.63769 -2.68432
lowerneck -21.812 2.02733 3.7091
upperneck 34.3002 3.73831 -1.62891
head 15.9601 2.29051 -0.467618
rclavicle 1.27471e-014 -4.08502e-014
rhumerus -15.9446 19.6744 -85.7701
rradius 43.1226
rwrist -4.1603
rhand -12.7814 -31.2421
rfingers 7.12502
rthumb 13.3039 -60.7974
lclavicle 1.27471e-014 -4.08502e-014
lhumerus -38.4698 12.5934 73.4152
lradius 18.918
lwrist -14.2963
lhand -18.3023 -23.5094
lfingers 7.12502
lthumb 7.97857 6.31999
rfemur 12.0053 -13.5783 14.7789
rtibia 3.68207
rfoot -26.29 -32.108
rtoes 16.7263
lfemur -15.8504 9.30781 1.40151
ltibia 10.6671
lfoot -8.34321 16.1163
ltoes -11.4403
347
root -30.434 16.6713 -1.61374 190.413 49.4748 186.954
lowerback 11.1428 3.50851 4.23818
upperback 3.98159 5.3542 0.325864
thorax -1.71485 2.79467 -2.68438
lowerneck -22.1975 1.7519 3.28857
upperneck 34.6002 3.28657 -1.0567
head 16.1593 2.13571 -0.22925
rclavicle -1.19569e-013 3.74212e-014
rhumerus -15.9939 19.1935 -85.6246
rradius 43.3723
rwrist -4.1881
rhand -12.6329 -31.393
rfingers 7.12502
rthumb 13.447 -60.939
lclavicle -1.19569e-013 3.74212e-014
lhumerus -38.1232 12.4487 73.4686
lradius 18.8795
lwrist -14.3579
lhand -18.2327 -23.5199
lfingers 7.12502
lthumb 8.04571 6.30691
rfemur 11.8739 -12.9282 14.3934
rtibia 4.15286
rfoot -26.745 -32.5118
rtoes 17.6761
lfemur -15.9182 9.56972 0.93275
ltibia 11.2532
lfoot -7.25216 14.943
ltoes -7.57084
348
root -30.4409 16.6626 -1.7373 189.764 49.1688 185.896
lowerback 11.0494 3.55006 3.71342
upperback 4.00236 5.33845 0.0391824
thorax -1.66417 2.786 -2.67992
lowerneck -22.0937 1.60873 3.49419
upperneck 34.4894 3.03101 -1.187
head 16.0791 2.03868 -0.375306
rclavicle -1.67047e-013 1.38901e-014
rhumerus -16.2134 18.6906 -85.5124
rradius 43.643
rwrist -4.11933
rhand -12.2556 -31.3774
rfingers 7.12502
rthumb 13.8106 -60.8989
lclavicle -1.67047e-013 1.38901e-014
lhumerus -37.9082 12.2164 73.6164
lradius 18.9257
lwrist -14.2125
lhand -18.3132 -23.6754
lfingers 7.12502
lthumb 7.96809 6.15441
rfemur 11.8086 -13.0372 13.1941
rtibia 4.62083
rfoot -26.9095 -32.7993
rtoes 17.5535
lfemur -16.5238 9.48344 -0.385378
ltibia 12.1075
lfoot -8.03297 14.5115
ltoes -14.0995
349
root -30.4452 16.6627 -1.8574 188.83 49.0027 184.655
lowerback 11.1905 3.62653 2.82424
upperback 4.02826 5.34596 -0.172848
thorax -1.7752 2.78419 -2.41821
lowerneck -21.9401 1.45206 3.38879
upperneck 34.3101 2.81439 -1.15766
head 15.9446 1.93693 -0.391535
rclavicle -5.20692e-014 -4.19933e-015
rhumerus -16.501 18.3092 -85.3532
rradius 43.876
rwrist -4.06595
rhand -11.7934 -31.3193
rfingers 7.12502
rthumb 14.256 -60.81
lclavicle -5.20692e-014 -4.19933e-015
lhumerus -37.7145 12.4345 73.688
lradius 18.8712
lwrist -14.2025
lhand -18.2938 -23.6806
lfingers 7.12502
lthumb 7.98679 6.14848
rfemur 11.9012 -12.4684 12.0602
rtibia 4.93714
rfoot -27.4292 -33.5204
rtoes 17.3147
lfemur -16.863 9.52088 -1.83304
ltibia 12.9652
lfoot -7.41529 13.2054
ltoes -7.07123
350
root -30.4402 16.6582 -1.96707 188.531 49.2085 184.078
lowerback 11.212 3.91789 2.19431
upperback 4.01535 5.6586 -0.371715
thorax -1.8221 2.93575 -2.3135
lowerneck -21.9805 1.1768 3.10383
upperneck 34.3354 2.3192 -0.639114
head 15.9382 1.7735 -0.216082
rclavicle 3.23786e-014 -1.76297e-014
rhumerus -16.7613 17.7152 -85.2514
rradius 44.0333
rwrist -4.25093
rhand -11.7212 -31.3268
rfingers 7.12502
rthumb 14.3257 -60.8126
lclavicle 3.23786e-014 -1.76297e-014
lhumerus -37.2823 12.3618 73.7644
lradius 18.7494
lwrist -14.0295
lhand -18.0845 -23.3881
lfingers 7.12502
lthumb 8.18875 6.43318
rfemur 11.6683 -12.3018 11.2533
rtibia 5.51773
rfoot -27.5689 -33.6637
rtoes 17.4176
lfemur -17.1663 10.1731 -2.63369
ltibia 13.8617
lfoot -8.06657 12.8985
ltoes -8.4913
351
root -30.44 16.6604 -2.08769 188.115 48.9759 183.694
lowerback 11.4652 3.97919 1.97343
upperback 4.07523 5.72555 -0.525303
thorax -1.8993 2.97207 -2.3762
lowerneck -21.7295 0.987569 3.06021
upperneck 33.98 1.98356 -0.537028
head 15.6959 1.63466 -0.238576
rclavicle 2.15371e-014 4.50993e-015
rhumerus -17.2428 17.1594 -85.1654
rradius 44.5706
rwrist -4.40989
rhand -11.7136 -31.6252
rfingers 7.12502
rthumb 14.3329 -61.1104
lclavicle 2.15371e-014 4.50993e-015
lhumerus -36.9451 11.97 74.0181
lradius 18.8188
lwrist -13.3696
lhand -17.9707 -23.0906
lfingers 7.12502
lthumb 8.29857 6.72638
rfemur 11.8202 -11.8935 10.7135
rtibia 5.97254
rfoot -28.5633 -33.902
rtoes 19.653
lfemur -17.299 10.2896 -3.33336
ltibia 14.6914
lfoot -8.20499 12.4375
ltoes -8.47485
352
root -30.4436 16.6584 -2.21957 187.577 48.6469 183
lowerback 11.5568 3.97427 1.60283
upperback 4.09878 5.68005 -0.680281
thorax -1.94668 2.94984 -2.33267
lowerneck -21.6194 0.812935 2.92784
upperneck 33.8604 1.71748 -0.400827
head 15.603 1.525 -0.211828
rclavicle 6.11946e-014 -1.11568e-014
rhumerus -17.8142 17.1625 -85.0159
rradius 45.0689
rwrist -4.67954
rhand -11.5191 -31.8273
rfingers 7.12502
rthumb 14.5204 -61.2992
lclavicle 6.11946e-014 -1.11568e-014
lhumerus -36.6978 11.7637 74.2875
lradius 18.8888
lwrist -12.7593
lhand -18.2367 -22.8974
lfingers 7.12502
lthumb 8.04193 6.92961
rfemur 11.8756 -11.9854 9.74258
rtibia 6.61075
rfoot -28.9702 -33.9468
rtoes 21.0614
lfemur -17.5241 10.1948 -4.39079
ltibia 15.434
lfoot -8.20915 12.1468
ltoes -9.16723
353
root -30.4459 16.6534 -2.34899 187.129 48.5197 182.276
lowerback 11.5243 4.07442 1.10818
upperback 4.11987 5.75668 -0.835652
thorax -1.93525 2.98783 -2.22533
lowerneck -21.7612 0.563475 2.69523
upperneck 33.894 1.34085 -0.172671
head 15.6396 1.37085 -0.146356
rclavicle -4.5149e-014 6.48535e-015
rhumerus -18.3413 17.2096 -84.8467
rradius 45.4515
rwrist -5.06031
rhand -11.6342 -31.664
rfingers 7.12502
rthumb 14.4095 -61.1438
lclavicle -4.5149e-014 6.48535e-015
lhumerus -36.2789 11.7826 74.4989
lradius 18.8508
lwrist -12.6509
lhand -18.7151 -23.3794
lfingers 7.12502
lthumb 7.58014 6.46474
rfemur 11.6641 -12.1798 8.6658
rtibia 7.45954
rfoot -28.6417 -34.0917
rtoes 21.7915
lfemur -17.7674 10.2827 -5.42949
ltibia 16.1232
lfoot -8.35148 12.0802
ltoes -11.16
354
root -30.4419 16.6477 -2.47743 186.836 48.4313 181.869
lowerback 11.5358 4.19326 0.802805
upperback 4.16785 5.88373 -0.94306
thorax -1.90468 3.05324 -2.18157
lowerneck -21.8138 0.311134 2.52771
upperneck 33.8106 0.945086 0.00368192
head 15.602 1.20606 -0.120483
rclavicle 9.40251e-014 -5.7896e-015
rhumerus -18.8347 16.9862 -84.7144
rradius 45.6976
rwrist -5.27089
rhand -12.0955 -31.227
rfingers 7.12502
rthumb 13.965 -60.738
lclavicle 9.40251e-014 -5.7896e-015
lhumerus -35.8408 11.3812 74.91
lradius 18.9634
lwrist -12.059
lhand -19.0346 -24.0417
lfingers 7.12502
lthumb 7.27171 5.81336
rfemur 11.5539 -12.0089 7.93254
rtibia 8.25419
rfoot -28.5807 -34.2247
rtoes 23.05
lfemur -17.8195 10.5965 -6.12694
ltibia 16.7183
lfoot -8.60578 12.2007
ltoes -14.399
355
root -30.4362 16.6398 -2.61191 186.695 48.1932 181.707
lowerback 11.5246 4.25655 0.785238
upperback 4.18935 5.9672 -1.03674
thorax -1.86428 3.09771 -2.27624
lowerneck -21.7361 0.07317 2.41298
upperneck 33.7115 0.548969 0.220548
head 15.5291 1.05701 -0.0866254
rclavicle 3.77691e-015 2.25621e-014
rhumerus -19.4612 16.6043 -84.6395
rradius 46.0545
rwrist -5.48024
rhand -12.2976 -31.0279
rfingers 7.12502
rthumb 13.7702 -60.5522
lclavicle 3.77691e-015 2.25621e-014
lhumerus -35.4753 10.419 75.5813
lradius 19.2167
lwrist -10.4013
lhand -19.03 -23.452
lfingers 7.12502
lthumb 7.27622 6.40293
rfemur 11.5989 -11.6396 7.51373
rtibia 8.94501
rfoot -28.7657 -34.3778
rtoes 24.2685
lfemur -17.7447 10.999 -6.62019
ltibia 17.1174
lfoot -8.92322 12.1817
ltoes -15.5108
356
root -30.4362 16.6317 -2.7536 186.459 47.9597 181.274
lowerback 11.3215 4.30832 0.670663
upperback 4.20598 6.02143 -1.19592
thorax -1.7285 3.12785 -2.36392
lowerneck -21.7683 -0.175808 2.19067
upperneck 33.7543 0.141608 0.567431
head 15.5517 0.913618 0.0219226
rclavicle 1.98412e-014 -3.69739e-014
rhumerus -19.9899 16.4866 -84.5871
rradius 46.2926
rwrist -5.98887
rhand -12.4322 -31.0013
rfingers 7.12502
rthumb 13.6405 -60.5343
lclavicle 1.98412e-014 -3.69739e-014
lhumerus -35.127 9.60542 76.1637
lradius 19.4817
lwrist -9.007
lhand -19.0834 -22.7905
lfingers 7.12502
lthumb 7.22468 7.06619
rfemur 11.4924 -11.3416 6.84802
rtibia 9.67072
rfoot -28.2532 -34.7533
rtoes 25.062
lfemur -17.7156 11.6221 -7.41738
ltibia 17.4098
lfoot -8.98466 11.5269
ltoes -14.4271
357
root -30.4336 16.6384 -2.91825 185.123 46.8678 179.961
lowerback 11.4956 4.00877 0.37021
upperback 4.37304 5.61124 -1.49807
thorax -1.6639 2.93654 -2.46679
lowerneck -21.9464 -0.421208 1.91646
upperneck 33.9503 -0.250405 0.960331
head 15.6859 0.782367 0.165393
rclavicle 4.11484e-014 -1.75427e-014
rhumerus -20.4747 16.5064 -84.597
rradius 46.284
rwrist -6.30813
rhand -12.5266 -30.8779
rfingers 7.12502
rthumb 13.5495 -60.417
lclavicle 4.11484e-014 -1.75427e-014
lhumerus -34.7959 9.18918 76.468
lradius 19.7021
lwrist -8.40902
lhand -19.1303 -22.8408
lfingers 7.12502
lthumb 7.17942 7.01741
rfemur 12.4556 -11.6899 5.1672
rtibia 10.1288
rfoot -27.6851 -35.0333
rtoes 26.1799
lfemur -17.4385 10.6157 -9.09533
ltibia 17.8311
lfoot -9.15428 11.0512
ltoes -14.4657
358
root -30.4158 16.6198 -3.0584 184.413 46.86 178.818
lowerback 11.1937 4.15836 -0.455234
upperback 4.34358 5.72027 -1.75007
thorax -1.57854 2.98728 -2.25953
lowerneck -21.9888 -0.680998 1.87381
upperneck 34.0496 -0.647297 1.05178
head 15.7426 0.632348 0.136883
rclavicle -4.31611e-014 3.50855e-014
rhumerus -21.0757 16.3373 -84.5857
rradius 46.334
rwrist -6.1211
rhand -12.4259 -31.2291
rfingers 7.12502
rthumb 13.6466 -60.7617
lclavicle -4.31611e-014 3.50855e-014
lhumerus -34.4598 8.86966 76.7549
lradius 19.8907
lwrist -7.92763
lhand -18.8959 -22.8494
lfingers 7.12502
lthumb 7.40565 7.00098
rfemur 12.2477 -11.2363 3.90228
rtibia 11.1283
rfoot -27.438 -35.0049
rtoes 28.0143
lfemur -17.3377 11.3879 -10.4697
ltibia 18.1285
lfoot -9.16969 10.3604
ltoes -16.0862
